# xmcd
#
# Track frame offsets:
#	150
#	23510
#	46935
#	71652
#	96397
#
# Disc length: 1547 seconds
#
# Revision: 3
# Processed by: cddbd v1.5.2PL0 Copyright (c) Steve Scherf et al.
# Submitted via: audiograbber 1.83.01
#
DISCID=39060905
DTITLE=Coolio - C U When U Get There/ Hit 'EM
DYEAR=1997
DGENRE=Rap
TTITLE0=C U When U Get There (Album Version)
TTITLE1=C U When U Get There (Ren Swan's Mix)
TTITLE2=C U When U Get There (Orchestra Mix)
TTITLE3=C U When U Get There (Alternate Mix)
TTITLE4=Hit 'Em (Album Version)
EXTD=
EXTT0=
EXTT1=
EXTT2=
EXTT3=
EXTT4=
PLAYORDER=
